<mxfile host="app.diagrams.net" modified="2021-12-19T06:24:21.797Z" agent="5.0 (Windows NT 10.0; Win64; x64) AppleWebKit/537.36 (KHTML, like Gecko) Chrome/96.0.4664.55 Safari/537.36 Edg/96.0.1054.43" etag="c-imalSyr8E2tZb8mndd" version="15.9.3" type="github">
  <diagram name="Page-1" id="e7e014a7-5840-1c2e-5031-d8a46d1fe8dd">
    <mxGraphModel dx="709" dy="840" grid="0" gridSize="10" guides="1" tooltips="1" connect="1" arrows="1" fold="1" page="0" pageScale="1" pageWidth="1169" pageHeight="826" background="none" math="0" shadow="0">
      <root>
        <mxCell id="0" />
        <mxCell id="1" parent="0" />
        <mxCell id="2" value="用户" style="swimlane;whiteSpace=wrap" parent="1" vertex="1">
          <mxGeometry x="164.5" y="128" width="280" height="570" as="geometry" />
        </mxCell>
        <mxCell id="12" value="" style="edgeStyle=elbowEdgeStyle;elbow=horizontal;strokeColor=#FF0000;endArrow=open;endFill=1;rounded=0" parent="2" source="10" edge="1">
          <mxGeometry width="100" height="100" relative="1" as="geometry">
            <mxPoint x="160" y="290" as="sourcePoint" />
            <mxPoint x="60" y="135" as="targetPoint" />
            <Array as="points">
              <mxPoint x="30" y="250" />
            </Array>
          </mxGeometry>
        </mxCell>
        <mxCell id="q0SUBmhHzXT-GE2v8vGP-41" value="输入要搜索的商品信息" style="html=1;align=center;verticalAlign=top;rounded=1;absoluteArcSize=1;arcSize=140;dashed=0;" vertex="1" parent="2">
          <mxGeometry x="70" y="116" width="140" height="40" as="geometry" />
        </mxCell>
        <mxCell id="q0SUBmhHzXT-GE2v8vGP-43" style="edgeStyle=orthogonalEdgeStyle;rounded=0;orthogonalLoop=1;jettySize=auto;html=1;exitX=0.5;exitY=1;exitDx=0;exitDy=0;entryX=0.5;entryY=0;entryDx=0;entryDy=0;" edge="1" parent="2" source="q0SUBmhHzXT-GE2v8vGP-42" target="q0SUBmhHzXT-GE2v8vGP-41">
          <mxGeometry relative="1" as="geometry" />
        </mxCell>
        <mxCell id="q0SUBmhHzXT-GE2v8vGP-42" value="" style="ellipse;fillColor=#000000;strokeColor=none;" vertex="1" parent="2">
          <mxGeometry x="124.5" y="37" width="30" height="30" as="geometry" />
        </mxCell>
        <mxCell id="q0SUBmhHzXT-GE2v8vGP-53" value="查看商品" style="html=1;align=center;verticalAlign=top;rounded=1;absoluteArcSize=1;arcSize=140;dashed=0;fontFamily=Helvetica;fontSize=6;" vertex="1" parent="2">
          <mxGeometry x="82.5" y="366" width="140" height="40" as="geometry" />
        </mxCell>
        <mxCell id="q0SUBmhHzXT-GE2v8vGP-60" value="" style="ellipse;html=1;shape=endState;fillColor=#000000;strokeColor=#000000;fontFamily=Helvetica;fontSize=7;" vertex="1" parent="2">
          <mxGeometry x="137.5" y="466" width="30" height="30" as="geometry" />
        </mxCell>
        <mxCell id="3" value="商城" style="swimlane;whiteSpace=wrap" parent="1" vertex="1">
          <mxGeometry x="444.5" y="128" width="280" height="570" as="geometry" />
        </mxCell>
        <mxCell id="q0SUBmhHzXT-GE2v8vGP-45" value="搜索词条相关商品" style="html=1;align=center;verticalAlign=top;rounded=1;absoluteArcSize=1;arcSize=140;dashed=0;fontFamily=Helvetica;fontSize=6;" vertex="1" parent="3">
          <mxGeometry x="53.5" y="116" width="131.5" height="40" as="geometry" />
        </mxCell>
        <mxCell id="q0SUBmhHzXT-GE2v8vGP-50" value="有相关商品" style="rhombus;fontFamily=Helvetica;fontSize=7;" vertex="1" parent="3">
          <mxGeometry x="46.5" y="227" width="151" height="45" as="geometry" />
        </mxCell>
        <mxCell id="q0SUBmhHzXT-GE2v8vGP-51" value="显示商品信息" style="html=1;align=center;verticalAlign=top;rounded=1;absoluteArcSize=1;arcSize=140;dashed=0;fontFamily=Helvetica;fontSize=6;" vertex="1" parent="3">
          <mxGeometry x="41.5" y="362" width="140" height="40" as="geometry" />
        </mxCell>
        <mxCell id="q0SUBmhHzXT-GE2v8vGP-55" value="是" style="text;html=1;align=center;verticalAlign=middle;resizable=0;points=[];autosize=1;strokeColor=none;fillColor=none;fontSize=7;fontFamily=Helvetica;" vertex="1" parent="3">
          <mxGeometry x="133.5" y="296" width="22" height="12" as="geometry" />
        </mxCell>
        <mxCell id="q0SUBmhHzXT-GE2v8vGP-49" style="edgeStyle=orthogonalEdgeStyle;rounded=0;orthogonalLoop=1;jettySize=auto;html=1;exitX=1;exitY=0.5;exitDx=0;exitDy=0;fontFamily=Helvetica;fontSize=6;" edge="1" parent="1" source="q0SUBmhHzXT-GE2v8vGP-41">
          <mxGeometry relative="1" as="geometry">
            <mxPoint x="501.1538461538462" y="264.6923076923076" as="targetPoint" />
          </mxGeometry>
        </mxCell>
        <mxCell id="q0SUBmhHzXT-GE2v8vGP-54" style="edgeStyle=orthogonalEdgeStyle;rounded=0;orthogonalLoop=1;jettySize=auto;html=1;exitX=0.5;exitY=1;exitDx=0;exitDy=0;fontFamily=Helvetica;fontSize=7;" edge="1" parent="1" source="q0SUBmhHzXT-GE2v8vGP-50">
          <mxGeometry relative="1" as="geometry">
            <mxPoint x="566.3846153846152" y="487.6923076923076" as="targetPoint" />
          </mxGeometry>
        </mxCell>
        <mxCell id="q0SUBmhHzXT-GE2v8vGP-57" style="edgeStyle=orthogonalEdgeStyle;rounded=0;orthogonalLoop=1;jettySize=auto;html=1;exitX=0.5;exitY=0;exitDx=0;exitDy=0;entryX=1;entryY=1;entryDx=0;entryDy=0;fontFamily=Helvetica;fontSize=7;" edge="1" parent="1" source="q0SUBmhHzXT-GE2v8vGP-50" target="q0SUBmhHzXT-GE2v8vGP-41">
          <mxGeometry relative="1" as="geometry" />
        </mxCell>
        <mxCell id="q0SUBmhHzXT-GE2v8vGP-58" value="否" style="text;html=1;align=center;verticalAlign=middle;resizable=0;points=[];autosize=1;strokeColor=none;fillColor=none;fontSize=7;fontFamily=Helvetica;" vertex="1" parent="1">
          <mxGeometry x="472" y="331" width="22" height="12" as="geometry" />
        </mxCell>
        <mxCell id="q0SUBmhHzXT-GE2v8vGP-59" style="edgeStyle=orthogonalEdgeStyle;rounded=0;orthogonalLoop=1;jettySize=auto;html=1;exitX=0.5;exitY=1;exitDx=0;exitDy=0;fontFamily=Helvetica;fontSize=7;" edge="1" parent="1" source="q0SUBmhHzXT-GE2v8vGP-41">
          <mxGeometry relative="1" as="geometry">
            <mxPoint x="305" y="481" as="targetPoint" />
          </mxGeometry>
        </mxCell>
        <mxCell id="q0SUBmhHzXT-GE2v8vGP-65" style="edgeStyle=orthogonalEdgeStyle;rounded=0;orthogonalLoop=1;jettySize=auto;html=1;exitX=0;exitY=0.5;exitDx=0;exitDy=0;fontFamily=Helvetica;fontSize=7;" edge="1" parent="1" source="q0SUBmhHzXT-GE2v8vGP-51">
          <mxGeometry relative="1" as="geometry">
            <mxPoint x="391" y="510.7692307692307" as="targetPoint" />
          </mxGeometry>
        </mxCell>
        <mxCell id="q0SUBmhHzXT-GE2v8vGP-66" style="edgeStyle=orthogonalEdgeStyle;rounded=0;orthogonalLoop=1;jettySize=auto;html=1;exitX=0.5;exitY=1;exitDx=0;exitDy=0;fontFamily=Helvetica;fontSize=7;" edge="1" parent="1" source="q0SUBmhHzXT-GE2v8vGP-53">
          <mxGeometry relative="1" as="geometry">
            <mxPoint x="317.1538461538462" y="591.5384615384614" as="targetPoint" />
          </mxGeometry>
        </mxCell>
      </root>
    </mxGraphModel>
  </diagram>
</mxfile>
